HIERARCHY
ROOT Hips
{
	OFFSET 53.618301 -13.492716 97.844803
	CHANNELS 6 Xposition Yposition Zposition Xrotation Yrotation Zrotation
	JOINT spine
	{
		OFFSET 0.000000 -0.477352 8.301041
		CHANNELS 3 Xrotation Yrotation Zrotation
		JOINT spine1
		{
			OFFSET 0.000000 -0.000002 10.456497
			CHANNELS 3 Xrotation Yrotation Zrotation
			JOINT spine2
			{
				OFFSET 0.000000 -0.000002 10.019203
				CHANNELS 3 Xrotation Yrotation Zrotation
				JOINT Neck
				{
					OFFSET 0.000000 -1.226414 25.723503
					CHANNELS 3 Xrotation Yrotation Zrotation
					JOINT Head
					{
						OFFSET 0.000000 -0.000001 7.771744
						CHANNELS 3 Xrotation Yrotation Zrotation
						End Site
						{
							OFFSET 0.000000 6.203936 18.811996
						}
					}
				}
				JOINT RightShoulder
				{
					OFFSET -4.218800 0.587438 10.820000
					CHANNELS 3 Xrotation Yrotation Zrotation
					JOINT RightArm
					{
						OFFSET 0.000000 -0.000003 14.191406
						CHANNELS 3 Xrotation Yrotation Zrotation
						JOINT RightArmRoll
						{
							OFFSET 0.000000 -0.000001 7.164093
							CHANNELS 3 Xrotation Yrotation Zrotation
							JOINT RightForeArm
							{
								OFFSET 0.000000 -0.000004 20.866501
								CHANNELS 3 Xrotation Yrotation Zrotation
								JOINT RightForeArmRoll
								{
									OFFSET 0.000000 -0.000001 8.039215
									CHANNELS 3 Xrotation Yrotation Zrotation
									JOINT RightHand
									{
										OFFSET 0.000000 -0.000003 16.132996
										CHANNELS 3 Xrotation Yrotation Zrotation
										End Site
										{
											OFFSET 0.000000 0.000000 0.100006
										}
									}
								}
							}
						}
					}
				}
				JOINT LeftShoulder
				{
					OFFSET 4.218800 0.587438 10.820000
					CHANNELS 3 Xrotation Yrotation Zrotation
					JOINT LeftArm
					{
						OFFSET 0.000000 -0.000003 14.191406
						CHANNELS 3 Xrotation Yrotation Zrotation
						JOINT LeftArmRoll
						{
							OFFSET 0.000000 -0.000001 7.164093
							CHANNELS 3 Xrotation Yrotation Zrotation
							JOINT LeftForeArm
							{
								OFFSET 0.000000 -0.000004 20.866501
								CHANNELS 3 Xrotation Yrotation Zrotation
								JOINT LeftForeArmRoll
								{
									OFFSET 0.000000 -0.000001 8.039215
									CHANNELS 3 Xrotation Yrotation Zrotation
									JOINT LeftHand
									{
										OFFSET 0.000000 -0.000003 16.132996
										CHANNELS 3 Xrotation Yrotation Zrotation
										End Site
										{
											OFFSET 0.000000 0.000000 0.100006
										}
									}
								}
							}
						}
					}
				}
			}
		}
	}
	JOINT RightUpLeg
	{
		OFFSET -7.357731 1.131821 -1.349213
		CHANNELS 3 Xrotation Yrotation Zrotation
		JOINT RightUpLegRoll
		{
			OFFSET 0.000000 -0.000004 18.916801
			CHANNELS 3 Xrotation Yrotation Zrotation
			JOINT RightLeg
			{
				OFFSET 0.000000 0.000004 -23.425598
				CHANNELS 3 Xrotation Yrotation Zrotation
				JOINT RightLegRoll
				{
					OFFSET 0.000000 -0.000004 23.502296
					CHANNELS 3 Xrotation Yrotation Zrotation
					JOINT RightFoot
					{
						OFFSET 0.000000 -0.000003 19.561707
						CHANNELS 3 Xrotation Yrotation Zrotation
						JOINT RightToeBase
						{
							OFFSET 0.000000 -0.000003 16.352600
							CHANNELS 3 Xrotation Yrotation Zrotation
							End Site
							{
								OFFSET 0.006931 0.912836 7.919434
							}
						}
					}
				}
			}
		}
	}
	JOINT LeftUpLeg
	{
		OFFSET 7.357731 1.131821 -1.349213
		CHANNELS 3 Xrotation Yrotation Zrotation
		JOINT LeftUpLegRoll
		{
			OFFSET 0.000000 -0.000004 18.916901
			CHANNELS 3 Xrotation Yrotation Zrotation
			JOINT LeftLeg
			{
				OFFSET 0.000000 -0.000004 23.425507
				CHANNELS 3 Xrotation Yrotation Zrotation
				JOINT LeftLegRoll
				{
					OFFSET 0.000000 -0.000004 23.719498
					CHANNELS 3 Xrotation Yrotation Zrotation
					JOINT LeftFoot
					{
						OFFSET 0.000000 -0.000003 19.344406
						CHANNELS 3 Xrotation Yrotation Zrotation
						JOINT LeftToeBase
						{
							OFFSET 0.000000 -0.000003 16.352600
							CHANNELS 3 Xrotation Yrotation Zrotation
							End Site
							{
								OFFSET -0.031063 0.912836 7.919434
							}
						}
					}
				}
			}
		}
	}
}
MOTION
Frames: 10
Frame Time: 0.041667
47.382301 -12.176724 97.678116 -3.034369 -0.916731 63.894610 -2.703346 0.297685 0.318822 -1.405513 0.583413 0.648615 0.239558 0.591142 0.641567 31.097182 -25.892610 10.448406 -11.523126 28.649259 7.319313 -22.978392 -53.522527 -27.335059 -143.346464 -164.636628 -76.824199 0.000009 -0.000000 0.000001 119.766575 0.706588 17.394209 0.000001 0.000011 -3.008440 -5.000108 -7.998826 0.000064 3.840069 52.036466 -5.516249 -77.986676 115.190594 78.515169 0.000004 -0.000019 -0.000003 83.987080 2.281450 2.394241 0.000006 -0.000007 3.000002 -5.000211 7.998741 -0.000185 -0.616225 -172.926415 9.404997 -179.999991 0.000006 -1.578998 146.414326 -6.700351 -3.486311 0.000001 0.000000 0.584226 67.555045 6.816453 2.415202 43.872740 -6.239641 4.586656 -14.023960 175.775301 0.370959 -0.000002 -0.000005 -1.038192 -22.232274 4.857012 1.907131 -0.000003 -0.000003 -0.302879 69.756107 -6.878660 -2.102526 25.456957 7.355615 -0.000002 
47.425201 -12.208421 97.708801 -3.076278 -0.899129 64.312884 -2.707635 0.302385 0.323194 -1.414135 0.592600 0.657568 0.230930 0.600435 0.650405 30.948311 -25.774602 10.196004 -11.481014 28.384193 7.106913 -22.849903 -53.625547 -27.174927 -142.802849 -164.625509 -77.121899 0.000010 -0.000000 0.000001 120.322457 0.587221 17.290883 0.000001 0.000011 -3.008440 -5.000108 -7.998826 0.000064 3.811072 52.185985 -5.457466 -77.820314 115.376184 78.694079 0.000002 -0.000017 -0.000002 83.966603 2.305058 2.389991 0.000008 -0.000006 3.000003 -5.000212 7.998745 -0.000188 -0.550846 -173.037310 9.382511 -179.999991 0.000005 -1.581002 146.395024 -6.717302 -3.492654 0.000002 -0.000000 0.586101 67.556930 6.814971 2.418797 43.689793 -6.269832 4.519455 -14.031035 175.766695 0.416595 -0.000002 -0.000006 -1.037461 -22.193479 4.809487 1.897424 -0.000003 -0.000003 -0.302066 69.780163 -6.878698 -2.100640 25.456957 7.355614 -0.000002 
47.456692 -12.236823 97.676109 -3.118811 -0.882905 64.729696 -2.711530 0.307218 0.327791 -1.421979 0.602048 0.666959 0.223087 0.609994 0.659676 30.801759 -25.644702 9.941854 -11.443286 28.103817 6.894904 -22.715911 -53.727624 -27.008276 -142.231094 -164.610469 -77.455445 0.000007 -0.000002 0.000001 120.842753 0.478363 17.143042 -0.000001 0.000011 -3.008440 -5.000110 -7.998827 0.000065 3.780023 52.339664 -5.395719 -77.666484 115.558222 78.887660 0.000005 -0.000018 -0.000000 83.947567 2.328142 2.385798 0.000003 -0.000006 3.000000 -5.000212 7.998740 -0.000191 -0.484060 -173.148246 9.358178 -179.999991 0.000006 -1.583002 146.377962 -6.732742 -3.498647 0.000002 -0.000001 0.587843 67.558070 6.813487 2.422333 43.507499 -6.299466 4.452564 -14.034329 175.757051 0.461931 -0.000003 -0.000005 -1.036700 -22.150297 4.762185 1.887505 -0.000003 -0.000003 -0.301260 69.803557 -6.878666 -2.099086 25.456960 7.355617 -0.000002 
47.514000 -12.272114 97.709099 -3.162125 -0.868256 65.144432 -2.714959 0.312166 0.332611 -1.428882 0.611730 0.676807 0.216187 0.619792 0.669409 30.657536 -25.501440 9.685761 -11.410686 27.806190 6.683422 -22.576424 -53.828830 -26.835094 -141.629860 -164.593707 -77.823592 0.000008 -0.000002 0.000001 121.319118 0.381543 16.941034 0.000001 0.000011 -3.008441 -5.000109 -7.998826 0.000066 3.746383 52.497828 -5.330388 -77.527408 115.736668 79.097825 0.000002 -0.000015 -0.000000 83.929406 2.350878 2.381575 0.000007 -0.000006 3.000003 -5.000210 7.998743 -0.000189 -0.416236 -173.260179 9.332047 -179.999991 0.000005 -1.583998 146.362321 -6.746600 -3.503372 0.000001 0.000001 0.589416 67.557497 6.812204 2.425508 43.327722 -6.328228 4.386733 -14.033022 175.746341 0.506978 -0.000002 -0.000005 -1.035920 -22.102318 4.715018 1.877370 -0.000003 -0.000003 -0.300463 69.826308 -6.878563 -2.097756 25.456957 7.355614 -0.000001 
47.547401 -12.298717 97.736397 -3.206387 -0.855371 65.556777 -2.717823 0.317220 0.337675 -1.434675 0.621616 0.687140 0.210395 0.629802 0.679621 30.515847 -25.343507 9.427714 -11.383734 27.489812 6.472599 -22.431472 -53.928927 -26.655382 -140.997999 -164.576973 -78.225549 0.000010 -0.000001 0.000001 121.743628 0.299369 16.679882 0.000001 0.000009 -3.008440 -5.000109 -7.998824 0.000065 3.709671 52.660560 -5.260830 -77.405045 115.911548 79.326213 0.000003 -0.000016 -0.000003 83.911435 2.373471 2.377248 0.000006 -0.000007 3.000001 -5.000214 7.998743 -0.000188 -0.347758 -173.372126 9.304152 -179.999991 0.000006 -1.586003 146.347376 -6.758014 -3.508385 0.000003 0.000001 0.590781 67.554546 6.811099 2.428372 43.152479 -6.355850 4.322677 -14.026485 175.736519 0.551245 -0.000001 -0.000005 -1.035118 -22.048848 4.667905 1.866970 -0.000003 -0.000004 -0.299682 69.847980 -6.878447 -2.096590 25.456959 7.355614 -0.000001 
47.598801 -12.339119 97.750702 -3.251762 -0.844462 65.966124 -2.720052 0.322358 0.342990 -1.439187 0.631681 0.697982 0.205875 0.639995 0.690341 30.376816 -25.169782 9.167739 -11.363189 27.152864 6.262568 -22.280806 -54.027838 -26.468897 -140.334050 -164.562343 -78.660318 0.000010 -0.000001 0.000000 122.108332 0.234935 16.354394 0.000001 0.000011 -3.008443 -5.000114 -7.998823 0.000065 3.669360 52.828313 -5.186394 -77.301185 116.082985 79.574245 0.000003 -0.000017 -0.000003 83.893274 2.396028 2.372627 0.000004 -0.000007 3.000002 -5.000207 7.998746 -0.000189 -0.278996 -173.482065 9.274518 -179.999991 0.000005 -1.587997 146.332254 -6.766877 -3.511778 0.000002 -0.000001 0.591895 67.548228 6.810256 2.430893 42.983439 -6.382045 4.261123 -14.014031 175.726588 0.594984 -0.000003 -0.000005 -1.034280 -21.989179 4.620769 1.856258 -0.000003 -0.000003 -0.298912 69.868662 -6.878181 -2.095863 25.456957 7.355615 -0.000002 
47.642498 -12.372220 97.738197 -3.296781 -0.836610 66.373613 -2.721714 0.327786 0.348507 -1.442591 0.642320 0.709236 0.202473 0.650768 0.701470 30.242821 -24.983060 8.906447 -11.349643 26.796599 6.052769 -22.123606 -54.129280 -26.274771 -139.636770 -164.528138 -79.166271 0.000010 -0.000001 0.000001 122.441591 0.189363 15.947909 0.000002 0.000009 -3.008439 -5.000110 -7.998827 0.000067 3.626739 53.000608 -5.108524 -77.210255 116.248604 79.837473 0.000001 -0.000015 -0.000000 83.875843 2.418195 2.367978 0.000006 -0.000006 3.000002 -5.000208 7.998747 -0.000188 -0.207366 -173.594039 9.242196 -179.999991 0.000006 -1.589992 146.319304 -6.773406 -3.515263 0.000003 0.000002 0.592796 67.540483 6.809568 2.433139 42.815608 -6.407348 4.201157 -13.993879 175.715537 0.638333 -0.000002 -0.000005 -1.033400 -21.921897 4.573338 1.845120 -0.000003 -0.000003 -0.298150 69.888046 -6.877831 -2.095397 25.456957 7.355616 -0.000003 
47.762600 -12.433321 97.785202 -3.340053 -0.832397 66.780727 -2.722975 0.333664 0.354173 -1.445174 0.653860 0.720799 0.199887 0.662446 0.712891 30.115301 -24.787165 8.644345 -11.342839 26.423934 5.842507 -21.958898 -54.235783 -26.071956 -138.911991 -164.451120 -79.779806 0.000010 -0.000001 0.000000 122.774549 0.160238 15.458888 0.000001 0.000012 -3.008441 -5.000111 -7.998826 0.000066 3.583297 53.176728 -5.028939 -77.125533 116.406422 80.110339 0.000003 -0.000017 -0.000001 83.860489 2.439536 2.363446 0.000003 -0.000007 3.000001 -5.000208 7.998743 -0.000189 -0.130521 -173.707010 9.206353 -179.999991 0.000005 -1.592000 146.311135 -6.776957 -3.516972 0.000004 0.000000 0.593559 67.533489 6.808874 2.435232 42.642801 -6.432481 4.141249 -13.965717 175.703365 0.681222 -0.000002 -0.000006 -1.032501 -21.846702 4.525510 1.833532 -0.000003 -0.000003 -0.297381 69.906132 -6.877397 -2.095401 25.456955 7.355613 -0.000001 
47.792000 -12.464621 97.783798 -3.381796 -0.831287 67.187280 -2.723846 0.339928 0.359995 -1.447008 0.666161 0.732688 0.198062 0.674888 0.724637 29.993604 -24.582022 8.381460 -11.342078 26.035740 5.631707 -21.787241 -54.345954 -25.861043 -138.169304 -164.330499 -80.495876 0.000008 -0.000001 0.000002 123.103423 0.142004 14.893796 0.000001 0.000010 -3.008440 -5.000111 -7.998825 0.000066 3.538814 53.356854 -4.947478 -77.047730 116.557342 80.393499 0.000001 -0.000015 -0.000003 83.847416 2.460015 2.359030 0.000006 -0.000008 3.000001 -5.000212 7.998741 -0.000188 -0.049224 -173.823000 9.167343 -179.999991 0.000005 -1.594002 146.307324 -6.779161 -3.517074 0.000001 0.000001 0.594185 67.527014 6.808276 2.437114 42.465817 -6.457440 4.081241 -13.930663 175.690087 0.723661 -0.000001 -0.000005 -1.031561 -21.764591 4.477430 1.821587 -0.000004 -0.000003 -0.296599 69.923146 -6.876921 -2.095460 25.456957 7.355614 -0.000001 
47.857300 -12.495914 97.804710 -3.422199 -0.832740 67.593102 -2.724369 0.346504 0.365989 -1.448131 0.679084 0.744929 0.196938 0.687959 0.736719 29.876829 -24.367492 8.117618 -11.346675 25.632991 5.420308 -21.608480 -54.458341 -25.641966 -137.418598 -164.166260 -81.309092 0.000012 -0.000001 0.000002 123.424565 0.131100 14.264643 0.000000 0.000011 -3.008440 -5.000108 -7.998826 0.000068 3.493095 53.540692 -4.863902 -76.976976 116.701951 80.686862 0.000003 -0.000016 -0.000002 83.836426 2.479713 2.354924 0.000005 -0.000008 3.000001 -5.000213 7.998747 -0.000187 0.035770 -173.939004 9.125484 -179.999991 0.000004 -1.596005 146.307570 -6.780026 -3.516595 0.000002 0.000000 0.594704 67.521078 6.807648 2.439055 42.285363 -6.482253 4.020987 -13.889890 175.676714 0.765428 -0.000002 -0.000005 -1.030600 -21.676596 4.429261 1.809392 -0.000004 -0.000003 -0.295825 69.939279 -6.876345 -2.095960 25.456959 7.355614 -0.000002 
